<svg width="16" height="16" viewBox="0 0 16 16" fill="none" xmlns="http://www.w3.org/2000/svg">
<path d="M3.5 8.00277C3.5 7.72662 3.72386 7.50277 4 7.50277H12C12.2761 7.50277 12.5 7.72662 12.5 8.00277C12.5 8.27891 12.2761 8.50277 12 8.50277H4C3.72386 8.50277 3.5 8.27891 3.5 8.00277Z" fill="white"/>
<path d="M7.64645 3.64645C7.84171 3.45118 8.15829 3.45118 8.35355 3.64645L12.3536 7.64645C12.5488 7.84171 12.5488 8.15829 12.3536 8.35355L8.35355 12.3536C8.15829 12.5488 7.84171 12.5488 7.64645 12.3536C7.45118 12.1583 7.45118 11.8417 7.64645 11.6464L11.2929 8L7.64645 4.35355C7.45118 4.15829 7.45118 3.84171 7.64645 3.64645Z" fill="white"/>
</svg>
